<?xml version="1.0" encoding="utf-8"?>
<!-- Generator: Adobe Illustrator 24.3.0, SVG Export Plug-In . SVG Version: 6.00 Build 0)  -->
<svg version="1.1" id="Capa_1" xmlns="http://www.w3.org/2000/svg" xmlns:xlink="http://www.w3.org/1999/xlink" x="0px" y="0px"
	 viewBox="0 0 181 130" style="enable-background:new 0 0 181 130;" xml:space="preserve">
<style type="text/css">
	.st0{fill:#03264C;}
	.st1{fill:#EAC926;}
	.st2{fill:#FFFFFF;}
</style>
<g id="g14">
	<g id="g20" transform="translate(329.6772,316.9189)">
		<path id="path22" class="st0" d="M-154.3-254c0-30.9-38.4-56.1-85.8-56.1s-85.8,25.2-85.8,56.1c0,0.8,0,3,0,3.3
			c0,32.8,33.6,59.3,85.8,59.3c52.5,0,85.8-26.6,85.8-59.3L-154.3-254L-154.3-254z"/>
	</g>
	<g id="g24" transform="translate(325.6143,316.9531)">
		<path id="path26" class="st1" d="M-153.5-254.1c0,29.1-36.9,52.8-82.5,52.8s-82.5-23.6-82.5-52.8s36.9-52.8,82.5-52.8
			C-190.4-306.9-153.5-283.2-153.5-254.1"/>
	</g>
	<g id="g28" transform="translate(189.7051,337.5469)">
		<path id="path30" class="st2" d="M-127.4-291.3c0,0.1-0.9,0.9-0.3,1.6c1.3,1.7,5.3,2.6,9.4,1.7c2.4-0.5,5.5-3,8.5-5.4
			c3.3-2.6,6.5-5.2,9.7-6.2c3.4-1.1,5.6-0.6,7.1-0.2c1.6,0.5,3.5,1.5,6.5,3.8c5.6,4.2,28.3,24,32.2,27.5c3.2-1.4,17.2-7.5,36.3-11.7
			c-1.7-10.2-7.8-19.5-17.2-27.1c-13.1,5.5-29,8.4-44.7,0.7c-0.1,0-8.5-4-16.9-3.8c-12.4,0.3-17.8,5.6-23.4,11.3L-127.4-291.3z"/>
	</g>
	<g id="g32" transform="translate(279.0542,306.6982)">
		<path id="path34" class="st2" d="M-144.6-235.6c-0.3-0.2-26.7-23.4-32.7-27.9c-3.5-2.6-5.4-3.3-7.4-3.5c-1.1-0.1-2.5,0.1-3.5,0.3
			c-2.8,0.8-6.4,3.2-9.6,5.8c-3.4,2.7-6.5,5.2-9.4,5.8c-3.7,0.8-8.3-0.1-10.4-1.6c-0.9-0.6-1.4-1.2-1.7-1.9
			c-0.8-1.8,0.6-3.2,0.9-3.5l7.3-7.9c0.9-0.9,1.7-1.7,2.6-2.5c-2.4,0.3-4.5,0.9-6.6,1.5c-2.6,0.7-5.2,1.5-7.8,1.5
			c-1.1,0-6.8-0.9-7.9-1.2c-6.6-1.8-12.4-3.6-21-7.6c-10.4,7.7-17.3,17.4-19.3,28c1.5,0.4,3.9,1.1,4.9,1.3
			c23.4,5.2,30.8,10.6,32.1,11.7c1.4-1.6,3.5-2.6,5.8-2.6c2.6,0,4.9,1.3,6.4,3.3c1.3-1.1,3.2-2,5.6-2c1.1,0,2.2,0.2,3.4,0.6
			c2.6,0.9,4,2.7,4.7,4.3c0.9-0.4,2-0.7,3.3-0.7c1.3,0,2.6,0.3,3.9,0.9c4.3,1.9,5,6.1,4.6,9.3c0.3,0,0.6-0.1,0.9-0.1
			c5.1,0,9.3,4.2,9.3,9.3c0,1.6-0.4,3.1-1.1,4.4c1.4,0.8,4.9,2.6,8.1,2.2c2.5-0.3,3.4-1.2,3.8-1.6c0.2-0.3,0.5-0.7,0.2-1l-6.6-7.4
			c0,0-1.1-1-0.7-1.4c0.4-0.4,1,0.2,1.5,0.6c3.4,2.8,7.5,7.1,7.5,7.1c0.1,0,0.3,0.6,1.9,0.9c1.3,0.2,3.6,0.1,5.2-1.2
			c0.4-0.3,0.8-0.8,1.1-1.2c0,0-0.1,0.1-0.1,0.1c1.7-2.2-0.2-4.4-0.2-4.4l-7.7-8.7c0,0-1.1-1-0.7-1.4c0.3-0.4,1.1,0.2,1.5,0.6
			c2.4,2.1,5.9,5.5,9.2,8.8c0.6,0.5,3.6,2.3,7.4-0.3c2.3-1.5,2.8-3.4,2.7-4.8c-0.2-1.9-1.6-3.2-1.6-3.2l-10.6-10.6
			c0,0-1.1-0.9-0.7-1.4c0.3-0.4,1.1,0.2,1.5,0.6c3.4,2.8,12.5,11.1,12.5,11.1c0.1,0.1,3.3,2.3,7.2-0.1c1.4-0.9,2.3-2.2,2.4-3.8
			C-142.7-233.9-144.6-235.6-144.6-235.6"/>
	</g>
	<g id="g36" transform="translate(215.7334,290.0596)">
		<path id="path38" class="st2" d="M-132.4-205.5c-1.6,0-3.4,0.9-3.7,0.8c-0.1-0.1,0.1-0.7,0.2-1.1c0.2-0.4,2.3-6.9-2.9-9.1
			c-4-1.7-6.5,0.2-7.3,1.1c-0.2,0.2-0.3,0.2-0.4-0.1c-0.1-1.2-0.6-4.3-4.1-5.4c-5-1.5-8.1,1.9-8.9,3.2c-0.4-2.8-2.8-5-5.7-5
			c-3.2,0-5.8,2.6-5.8,5.8s2.6,5.8,5.8,5.8c1.5,0,2.9-0.6,4-1.6c0,0,0.1,0.1,0,0.2c-0.2,1.4-0.7,6.6,4.7,8.7c2.2,0.8,4,0.2,5.6-0.9
			c0.5-0.3,0.5-0.2,0.5,0.2c-0.2,1.3,0.1,4.2,4,5.8c3,1.2,4.8,0,6-1.1c0.5-0.5,0.6-0.4,0.7,0.3c0.1,3.9,3.3,6.9,7.2,6.9
			c4,0,7.2-3.2,7.2-7.2C-125.2-202.2-128.4-205.4-132.4-205.5"/>
	</g>
	<g id="g40" transform="translate(215.7334,272.79)">
		<path id="path42" class="st0" d="M-132.4-174.2c-3.6,0-6.6-2.8-6.7-6.4c0-0.3,0-1.1-0.7-1.1c-0.3,0-0.5,0.2-0.8,0.4
			c-0.8,0.7-1.8,1.5-3.3,1.5c-0.7,0-1.4-0.2-2.2-0.5c-3.8-1.6-3.9-4.2-3.7-5.2c0-0.3,0.1-0.6-0.1-0.8l-0.2-0.2h-0.2
			c-0.2,0-0.4,0.1-0.7,0.3c-1.1,0.8-2.2,1.1-3.2,1.1c-0.6,0-1.2-0.1-1.8-0.4c-5-2-4.6-6.7-4.4-8.1c0-0.3,0-0.5-0.2-0.7l-0.4-0.3
			l-0.3,0.3c-1,0.9-2.3,1.5-3.6,1.5c-2.9,0-5.2-2.4-5.2-5.2c0-2.9,2.4-5.2,5.2-5.2c2.6,0,4.8,2,5.2,4.6l0.2,1.4l0.8-1.2
			c0.1-0.1,2.2-3.3,6.1-3.3c0.7,0,1.5,0.1,2.3,0.4c3.1,0.9,3.6,3.8,3.7,4.9c0.1,0.7,0.5,0.7,0.6,0.7c0.3,0,0.5-0.2,0.6-0.3
			c0.6-0.6,1.9-1.6,3.9-1.6c0.9,0,1.9,0.2,2.9,0.6c4.9,2.1,2.7,8.4,2.7,8.4c-0.4,1-0.4,1.5,0,1.8l0.2,0.1h0.1c0.2,0,0.5-0.1,1-0.2
			c0.7-0.2,1.7-0.6,2.6-0.6l0,0c3.7,0,6.7,3.1,6.7,6.7C-125.7-177.2-128.7-174.2-132.4-174.2 M-80.2-204.4
			c-8.1-7.1-26.9-23.4-32-27.3c-2.9-2.2-4.9-3.3-6.6-3.9c-0.8-0.2-1.9-0.5-3.3-0.5c-1.3,0-2.7,0.2-4.1,0.7c-3.3,1-6.6,3.6-9.7,6.2
			l-0.2,0.1c-3,2.4-6,4.8-8.3,5.3c-1,0.2-2,0.4-3.1,0.4c-2.6,0-4.9-0.8-5.8-1.9c-0.1-0.2-0.1-0.5,0.3-0.9l0-0.1l7.2-7.7
			c5.6-5.6,10.9-10.9,23.1-11.2c0.2,0,0.4,0,0.6,0c7.6,0,15.2,3.4,16,3.8c7.1,3.5,14.5,5.2,21.8,5.2c7.7,0,15.6-1.9,24-5.8
			c-0.9-0.8-1.9-1.6-2.9-2.3c-7.3,3.2-14.3,4.8-21,4.8c-6.9,0-13.8-1.7-20.4-4.9c-0.3-0.2-8.7-4.1-17.4-4.1c-0.2,0-0.5,0-0.7,0
			c-10.2,0.2-16,3.9-19.9,7.1c-3.8,0.1-7,1-9.9,1.8c-2.6,0.7-4.8,1.3-7,1.3c-0.9,0-2.5-0.1-2.7-0.1c-2.5-0.1-15.1-3.2-25.1-7
			c-1,0.7-2,1.5-3,2.2c10.5,4.3,23.2,7.6,27.2,7.9c1.1,0.1,2.3,0.2,3.5,0.2c2.7,0,5.3-0.8,7.9-1.5c1.5-0.4,3.2-0.9,5-1.2
			c-0.5,0.5-0.9,0.9-1.4,1.4l-7.3,7.9c-0.6,0.6-1.8,2.1-1,4c0.3,0.8,1,1.5,1.9,2.1c1.7,1.2,4.8,2,7.7,2c1.1,0,2.1-0.1,3.1-0.3
			c3.1-0.7,6.2-3.2,9.6-5.9c2.7-2.1,6.5-4.9,9.5-5.7c0.8-0.2,1.8-0.4,2.6-0.4c0.2,0,0.5,0,0.7,0c1.9,0.2,3.8,0.9,7.2,3.4
			c6,4.5,32.4,27.6,32.6,27.8c0,0,1.7,1.5,1.6,3.9c-0.1,1.4-0.8,2.5-2.1,3.4c-1.1,0.7-2.3,1.1-3.5,1.1c-1.8,0-3-0.8-3.1-0.9
			c-0.1-0.1-9.2-8.4-12.5-11.2c-0.5-0.4-1.1-0.8-1.6-0.8c-0.3,0-0.5,0.1-0.7,0.3c-0.5,0.6,0.1,1.5,0.8,2.1l10.6,10.6
			c0,0,1.3,1.2,1.5,2.9c0.1,1.8-0.8,3.2-2.5,4.4c-1.2,0.8-2.5,1.2-3.8,1.2c-1.6,0-2.8-0.7-3-0.9l-1.5-1.5c-2.8-2.7-5.6-5.6-7.7-7.3
			c-0.5-0.4-1.1-0.8-1.6-0.8c-0.2,0-0.5,0.1-0.7,0.3c-0.2,0.3-0.4,0.7,0.2,1.5c0.2,0.3,0.5,0.6,0.5,0.6l7.7,8.7
			c0.1,0.1,1.6,1.9,0.2,3.7l-0.3,0.3c-0.2,0.3-0.5,0.5-0.7,0.7c-1.3,1.1-3.1,1.2-3.8,1.2c-0.4,0-0.7,0-1.1-0.1
			c-0.8-0.1-1.3-0.4-1.5-0.6l-0.1-0.1c-0.4-0.4-4.3-4.4-7.5-7.1c-0.4-0.4-0.9-0.8-1.5-0.8c-0.3,0-0.5,0.1-0.7,0.3
			c-0.6,0.7,0.3,1.7,0.7,2.1l6.6,7.3c0,0.1-0.1,0.2-0.2,0.4c-0.2,0.3-1,1.1-3.4,1.4c-0.3,0-0.6,0.1-0.9,0.1c-2.5,0-5.1-1.2-6.4-1.9
			c0.6-1.3,0.9-2.7,0.9-4.2c0-5.4-4.4-9.8-9.8-9.8c-0.1,0-0.2,0-0.4,0c0.2-2.5-0.2-7.1-5-9.2c-1.4-0.6-2.8-0.9-4.1-0.9
			c-1.1,0-2.1,0.2-3,0.5c-1-1.9-2.6-3.3-4.8-4.1c-1.2-0.4-2.4-0.6-3.5-0.6c-2,0-3.8,0.6-5.5,1.8c-1.6-2-3.9-3.1-6.5-3.1
			c-2.2,0-4.3,0.9-5.9,2.4c-2.1-1.6-10.2-6.7-31.9-11.7c-1.1-0.2-3.5-0.9-4.9-1.4c-0.2,1.2-0.4,2.4-0.6,3.6c0,0,4,1,4.8,1.1
			c22.2,4.9,29.6,10.1,30.8,11c-0.4,1-0.6,2.1-0.6,3.2c0,4.6,3.7,8.3,8.3,8.3c0.5,0,1,0,1.5-0.1c0.7,3.4,2.9,5.9,6.3,7.2
			c1,0.4,2,0.6,3,0.6c0.6,0,1.3-0.1,1.9-0.2c0.6,1.6,2,3.6,5.2,4.8c1.1,0.4,2.2,0.7,3.3,0.7c0.9,0,1.7-0.1,2.5-0.5
			c1.5,3.7,5.1,6.1,9.1,6.1c2.6,0,5.2-1.1,7-3c1.6,0.9,4.9,2.5,8.3,2.5c0.4,0,0.8,0,1.3-0.1c3.4-0.4,4.9-1.7,5.6-2.8
			c0.1-0.2,0.2-0.4,0.3-0.6c0.8,0.2,1.7,0.4,2.7,0.4c1.8,0,3.6-0.6,5.4-1.9c1.8-1.3,3-3.1,3.2-4.6c0,0,0,0,0-0.1
			c0.6,0.1,1.2,0.2,1.8,0.2c1.9,0,3.7-0.6,5.5-1.8c3.4-2.2,4-5.2,4-7.1c0.6,0.1,1.2,0.2,1.8,0.2c1.8,0,3.5-0.5,5.2-1.6
			c2.1-1.4,3.4-3.4,3.6-5.9c0.1-1.6-0.3-3.3-1.1-4.7c5.7-2.5,18.8-7.2,34.3-10.7c-0.1-1.2-0.3-2.4-0.5-3.6
			C-62.8-212-76.7-206-80.2-204.4"/>
	</g>
</g>
</svg>
